<mxfile host="app.diagrams.net" modified="2023-04-24T15:48:53.089Z" agent="Mozilla/5.0 (Windows NT 10.0; Win64; x64) AppleWebKit/537.36 (KHTML, like Gecko) Chrome/112.0.0.0 Safari/537.36" etag="0vs37H4a54hNhoYeNlPI" version="21.2.1" type="device">
  <diagram name="Page-1" id="5m7SplXsy_6cLmeRCA41">
    <mxGraphModel dx="1434" dy="802" grid="1" gridSize="10" guides="1" tooltips="1" connect="1" arrows="1" fold="1" page="1" pageScale="1" pageWidth="827" pageHeight="1169" math="0" shadow="0">
      <root>
        <mxCell id="0" />
        <mxCell id="1" parent="0" />
        <mxCell id="qWCiT4NCThMTdPQkKWIU-61" value="user" style="swimlane;fontStyle=0;childLayout=stackLayout;horizontal=1;startSize=30;horizontalStack=0;resizeParent=1;resizeParentMax=0;resizeLast=0;collapsible=1;marginBottom=0;whiteSpace=wrap;html=1;" vertex="1" parent="1">
          <mxGeometry x="359" y="30" width="140" height="210" as="geometry" />
        </mxCell>
        <mxCell id="qWCiT4NCThMTdPQkKWIU-62" value="&lt;u&gt;email&lt;/u&gt;" style="text;strokeColor=none;fillColor=none;align=left;verticalAlign=middle;spacingLeft=4;spacingRight=4;overflow=hidden;points=[[0,0.5],[1,0.5]];portConstraint=eastwest;rotatable=0;whiteSpace=wrap;html=1;" vertex="1" parent="qWCiT4NCThMTdPQkKWIU-61">
          <mxGeometry y="30" width="140" height="30" as="geometry" />
        </mxCell>
        <mxCell id="qWCiT4NCThMTdPQkKWIU-63" value="password" style="text;strokeColor=none;fillColor=none;align=left;verticalAlign=middle;spacingLeft=4;spacingRight=4;overflow=hidden;points=[[0,0.5],[1,0.5]];portConstraint=eastwest;rotatable=0;whiteSpace=wrap;html=1;" vertex="1" parent="qWCiT4NCThMTdPQkKWIU-61">
          <mxGeometry y="60" width="140" height="30" as="geometry" />
        </mxCell>
        <mxCell id="qWCiT4NCThMTdPQkKWIU-64" value="firstname" style="text;strokeColor=none;fillColor=none;align=left;verticalAlign=middle;spacingLeft=4;spacingRight=4;overflow=hidden;points=[[0,0.5],[1,0.5]];portConstraint=eastwest;rotatable=0;whiteSpace=wrap;html=1;" vertex="1" parent="qWCiT4NCThMTdPQkKWIU-61">
          <mxGeometry y="90" width="140" height="30" as="geometry" />
        </mxCell>
        <mxCell id="qWCiT4NCThMTdPQkKWIU-65" value="lastname" style="text;strokeColor=none;fillColor=none;align=left;verticalAlign=middle;spacingLeft=4;spacingRight=4;overflow=hidden;points=[[0,0.5],[1,0.5]];portConstraint=eastwest;rotatable=0;whiteSpace=wrap;html=1;" vertex="1" parent="qWCiT4NCThMTdPQkKWIU-61">
          <mxGeometry y="120" width="140" height="30" as="geometry" />
        </mxCell>
        <mxCell id="qWCiT4NCThMTdPQkKWIU-66" value="phone" style="text;strokeColor=none;fillColor=none;align=left;verticalAlign=middle;spacingLeft=4;spacingRight=4;overflow=hidden;points=[[0,0.5],[1,0.5]];portConstraint=eastwest;rotatable=0;whiteSpace=wrap;html=1;" vertex="1" parent="qWCiT4NCThMTdPQkKWIU-61">
          <mxGeometry y="150" width="140" height="30" as="geometry" />
        </mxCell>
        <mxCell id="qWCiT4NCThMTdPQkKWIU-119" value="hidden" style="text;strokeColor=none;fillColor=none;align=left;verticalAlign=middle;spacingLeft=4;spacingRight=4;overflow=hidden;points=[[0,0.5],[1,0.5]];portConstraint=eastwest;rotatable=0;whiteSpace=wrap;html=1;" vertex="1" parent="qWCiT4NCThMTdPQkKWIU-61">
          <mxGeometry y="180" width="140" height="30" as="geometry" />
        </mxCell>
        <mxCell id="qWCiT4NCThMTdPQkKWIU-67" value="order" style="swimlane;fontStyle=0;childLayout=stackLayout;horizontal=1;startSize=30;horizontalStack=0;resizeParent=1;resizeParentMax=0;resizeLast=0;collapsible=1;marginBottom=0;whiteSpace=wrap;html=1;" vertex="1" parent="1">
          <mxGeometry x="679" y="40" width="140" height="60" as="geometry" />
        </mxCell>
        <mxCell id="qWCiT4NCThMTdPQkKWIU-68" value="&lt;u&gt;ref_commande&lt;/u&gt;" style="text;strokeColor=none;fillColor=none;align=left;verticalAlign=middle;spacingLeft=4;spacingRight=4;overflow=hidden;points=[[0,0.5],[1,0.5]];portConstraint=eastwest;rotatable=0;whiteSpace=wrap;html=1;" vertex="1" parent="qWCiT4NCThMTdPQkKWIU-67">
          <mxGeometry y="30" width="140" height="30" as="geometry" />
        </mxCell>
        <mxCell id="qWCiT4NCThMTdPQkKWIU-69" value="product&lt;br&gt;" style="swimlane;fontStyle=0;childLayout=stackLayout;horizontal=1;startSize=30;horizontalStack=0;resizeParent=1;resizeParentMax=0;resizeLast=0;collapsible=1;marginBottom=0;whiteSpace=wrap;html=1;" vertex="1" parent="1">
          <mxGeometry x="359" y="360" width="140" height="210" as="geometry" />
        </mxCell>
        <mxCell id="qWCiT4NCThMTdPQkKWIU-70" value="&lt;u&gt;title&lt;/u&gt;" style="text;strokeColor=none;fillColor=none;align=left;verticalAlign=middle;spacingLeft=4;spacingRight=4;overflow=hidden;points=[[0,0.5],[1,0.5]];portConstraint=eastwest;rotatable=0;whiteSpace=wrap;html=1;" vertex="1" parent="qWCiT4NCThMTdPQkKWIU-69">
          <mxGeometry y="30" width="140" height="30" as="geometry" />
        </mxCell>
        <mxCell id="qWCiT4NCThMTdPQkKWIU-71" value="description" style="text;strokeColor=none;fillColor=none;align=left;verticalAlign=middle;spacingLeft=4;spacingRight=4;overflow=hidden;points=[[0,0.5],[1,0.5]];portConstraint=eastwest;rotatable=0;whiteSpace=wrap;html=1;" vertex="1" parent="qWCiT4NCThMTdPQkKWIU-69">
          <mxGeometry y="60" width="140" height="30" as="geometry" />
        </mxCell>
        <mxCell id="qWCiT4NCThMTdPQkKWIU-72" value="brand" style="text;strokeColor=none;fillColor=none;align=left;verticalAlign=middle;spacingLeft=4;spacingRight=4;overflow=hidden;points=[[0,0.5],[1,0.5]];portConstraint=eastwest;rotatable=0;whiteSpace=wrap;html=1;" vertex="1" parent="qWCiT4NCThMTdPQkKWIU-69">
          <mxGeometry y="90" width="140" height="30" as="geometry" />
        </mxCell>
        <mxCell id="qWCiT4NCThMTdPQkKWIU-73" value="price" style="text;strokeColor=none;fillColor=none;align=left;verticalAlign=middle;spacingLeft=4;spacingRight=4;overflow=hidden;points=[[0,0.5],[1,0.5]];portConstraint=eastwest;rotatable=0;whiteSpace=wrap;html=1;" vertex="1" parent="qWCiT4NCThMTdPQkKWIU-69">
          <mxGeometry y="120" width="140" height="30" as="geometry" />
        </mxCell>
        <mxCell id="qWCiT4NCThMTdPQkKWIU-74" value="image" style="text;strokeColor=none;fillColor=none;align=left;verticalAlign=middle;spacingLeft=4;spacingRight=4;overflow=hidden;points=[[0,0.5],[1,0.5]];portConstraint=eastwest;rotatable=0;whiteSpace=wrap;html=1;" vertex="1" parent="qWCiT4NCThMTdPQkKWIU-69">
          <mxGeometry y="150" width="140" height="30" as="geometry" />
        </mxCell>
        <mxCell id="qWCiT4NCThMTdPQkKWIU-118" value="hidden" style="text;strokeColor=none;fillColor=none;align=left;verticalAlign=middle;spacingLeft=4;spacingRight=4;overflow=hidden;points=[[0,0.5],[1,0.5]];portConstraint=eastwest;rotatable=0;whiteSpace=wrap;html=1;" vertex="1" parent="qWCiT4NCThMTdPQkKWIU-69">
          <mxGeometry y="180" width="140" height="30" as="geometry" />
        </mxCell>
        <mxCell id="qWCiT4NCThMTdPQkKWIU-75" value="role" style="swimlane;fontStyle=0;childLayout=stackLayout;horizontal=1;startSize=30;horizontalStack=0;resizeParent=1;resizeParentMax=0;resizeLast=0;collapsible=1;marginBottom=0;whiteSpace=wrap;html=1;" vertex="1" parent="1">
          <mxGeometry x="159" y="259" width="140" height="90" as="geometry" />
        </mxCell>
        <mxCell id="qWCiT4NCThMTdPQkKWIU-76" value="&lt;u&gt;ref role&lt;/u&gt;" style="text;strokeColor=none;fillColor=none;align=left;verticalAlign=middle;spacingLeft=4;spacingRight=4;overflow=hidden;points=[[0,0.5],[1,0.5]];portConstraint=eastwest;rotatable=0;whiteSpace=wrap;html=1;" vertex="1" parent="qWCiT4NCThMTdPQkKWIU-75">
          <mxGeometry y="30" width="140" height="30" as="geometry" />
        </mxCell>
        <mxCell id="qWCiT4NCThMTdPQkKWIU-77" value="label" style="text;strokeColor=none;fillColor=none;align=left;verticalAlign=middle;spacingLeft=4;spacingRight=4;overflow=hidden;points=[[0,0.5],[1,0.5]];portConstraint=eastwest;rotatable=0;whiteSpace=wrap;html=1;" vertex="1" parent="qWCiT4NCThMTdPQkKWIU-75">
          <mxGeometry y="60" width="140" height="30" as="geometry" />
        </mxCell>
        <mxCell id="qWCiT4NCThMTdPQkKWIU-78" value="include" style="ellipse;whiteSpace=wrap;html=1;align=center;newEdgeStyle={&quot;edgeStyle&quot;:&quot;entityRelationEdgeStyle&quot;,&quot;startArrow&quot;:&quot;none&quot;,&quot;endArrow&quot;:&quot;none&quot;,&quot;segment&quot;:10,&quot;curved&quot;:1,&quot;sourcePerimeterSpacing&quot;:0,&quot;targetPerimeterSpacing&quot;:0};treeFolding=1;treeMoving=1;" vertex="1" parent="1">
          <mxGeometry x="699" y="172" width="100" height="40" as="geometry" />
        </mxCell>
        <mxCell id="qWCiT4NCThMTdPQkKWIU-79" value="receive" style="ellipse;whiteSpace=wrap;html=1;align=center;newEdgeStyle={&quot;edgeStyle&quot;:&quot;entityRelationEdgeStyle&quot;,&quot;startArrow&quot;:&quot;none&quot;,&quot;endArrow&quot;:&quot;none&quot;,&quot;segment&quot;:10,&quot;curved&quot;:1,&quot;sourcePerimeterSpacing&quot;:0,&quot;targetPerimeterSpacing&quot;:0};treeFolding=1;treeMoving=1;" vertex="1" parent="1">
          <mxGeometry x="539" y="55" width="100" height="40" as="geometry" />
        </mxCell>
        <mxCell id="qWCiT4NCThMTdPQkKWIU-80" value="is" style="ellipse;whiteSpace=wrap;html=1;align=center;newEdgeStyle={&quot;edgeStyle&quot;:&quot;entityRelationEdgeStyle&quot;,&quot;startArrow&quot;:&quot;none&quot;,&quot;endArrow&quot;:&quot;none&quot;,&quot;segment&quot;:10,&quot;curved&quot;:1,&quot;sourcePerimeterSpacing&quot;:0,&quot;targetPerimeterSpacing&quot;:0};treeFolding=1;treeMoving=1;" vertex="1" parent="1">
          <mxGeometry x="379" y="284" width="100" height="40" as="geometry" />
        </mxCell>
        <mxCell id="qWCiT4NCThMTdPQkKWIU-81" value="" style="endArrow=none;html=1;exitX=0.5;exitY=0;exitDx=0;exitDy=0;" edge="1" parent="1" source="qWCiT4NCThMTdPQkKWIU-78">
          <mxGeometry width="50" height="50" relative="1" as="geometry">
            <mxPoint x="954" y="230" as="sourcePoint" />
            <mxPoint x="749" y="100" as="targetPoint" />
            <Array as="points" />
          </mxGeometry>
        </mxCell>
        <mxCell id="qWCiT4NCThMTdPQkKWIU-82" value="" style="endArrow=none;html=1;exitX=1;exitY=0.5;exitDx=0;exitDy=0;" edge="1" parent="1" source="qWCiT4NCThMTdPQkKWIU-79">
          <mxGeometry width="50" height="50" relative="1" as="geometry">
            <mxPoint x="799" y="80" as="sourcePoint" />
            <mxPoint x="680" y="75" as="targetPoint" />
          </mxGeometry>
        </mxCell>
        <mxCell id="qWCiT4NCThMTdPQkKWIU-83" value="" style="endArrow=none;html=1;entryX=0;entryY=0.5;entryDx=0;entryDy=0;exitX=1;exitY=0.5;exitDx=0;exitDy=0;" edge="1" parent="1" source="qWCiT4NCThMTdPQkKWIU-62" target="qWCiT4NCThMTdPQkKWIU-79">
          <mxGeometry width="50" height="50" relative="1" as="geometry">
            <mxPoint x="574" y="95" as="sourcePoint" />
            <mxPoint x="624" y="45" as="targetPoint" />
          </mxGeometry>
        </mxCell>
        <mxCell id="qWCiT4NCThMTdPQkKWIU-84" value="" style="endArrow=none;html=1;" edge="1" parent="1">
          <mxGeometry width="50" height="50" relative="1" as="geometry">
            <mxPoint x="429" y="240" as="sourcePoint" />
            <mxPoint x="429" y="250" as="targetPoint" />
          </mxGeometry>
        </mxCell>
        <mxCell id="qWCiT4NCThMTdPQkKWIU-85" value="" style="endArrow=none;html=1;exitX=1;exitY=0.5;exitDx=0;exitDy=0;entryX=0;entryY=0.5;entryDx=0;entryDy=0;" edge="1" parent="1" source="qWCiT4NCThMTdPQkKWIU-76" target="qWCiT4NCThMTdPQkKWIU-80">
          <mxGeometry width="50" height="50" relative="1" as="geometry">
            <mxPoint x="529" y="300" as="sourcePoint" />
            <mxPoint x="409" y="345" as="targetPoint" />
          </mxGeometry>
        </mxCell>
        <mxCell id="qWCiT4NCThMTdPQkKWIU-86" value="0,N" style="text;html=1;align=center;verticalAlign=middle;resizable=0;points=[];autosize=1;strokeColor=none;fillColor=none;" vertex="1" parent="1">
          <mxGeometry x="499" y="40" width="40" height="30" as="geometry" />
        </mxCell>
        <mxCell id="qWCiT4NCThMTdPQkKWIU-87" value="1,1" style="text;html=1;align=center;verticalAlign=middle;resizable=0;points=[];autosize=1;strokeColor=none;fillColor=none;" vertex="1" parent="1">
          <mxGeometry x="639" y="40" width="40" height="30" as="geometry" />
        </mxCell>
        <mxCell id="qWCiT4NCThMTdPQkKWIU-88" value="1,N" style="text;html=1;align=center;verticalAlign=middle;resizable=0;points=[];autosize=1;strokeColor=none;fillColor=none;" vertex="1" parent="1">
          <mxGeometry x="699" y="105" width="40" height="30" as="geometry" />
        </mxCell>
        <mxCell id="qWCiT4NCThMTdPQkKWIU-89" value="0,N" style="text;html=1;align=center;verticalAlign=middle;resizable=0;points=[];autosize=1;strokeColor=none;fillColor=none;" vertex="1" parent="1">
          <mxGeometry x="499" y="395" width="40" height="30" as="geometry" />
        </mxCell>
        <mxCell id="qWCiT4NCThMTdPQkKWIU-90" value="1,1" style="text;html=1;align=center;verticalAlign=middle;resizable=0;points=[];autosize=1;strokeColor=none;fillColor=none;" vertex="1" parent="1">
          <mxGeometry x="389" y="250" width="40" height="30" as="geometry" />
        </mxCell>
        <mxCell id="qWCiT4NCThMTdPQkKWIU-91" value="0,N" style="text;html=1;align=center;verticalAlign=middle;resizable=0;points=[];autosize=1;strokeColor=none;fillColor=none;" vertex="1" parent="1">
          <mxGeometry x="299" y="250" width="40" height="30" as="geometry" />
        </mxCell>
        <mxCell id="qWCiT4NCThMTdPQkKWIU-92" value="order_line" style="swimlane;fontStyle=0;childLayout=stackLayout;horizontal=1;startSize=26;fillColor=none;horizontalStack=0;resizeParent=1;resizeParentMax=0;resizeLast=0;collapsible=1;marginBottom=0;html=1;" vertex="1" parent="1">
          <mxGeometry x="679" y="250" width="140" height="108" as="geometry" />
        </mxCell>
        <mxCell id="qWCiT4NCThMTdPQkKWIU-93" value="&lt;u&gt;ref_order_line&lt;/u&gt;" style="text;strokeColor=none;fillColor=none;align=left;verticalAlign=top;spacingLeft=4;spacingRight=4;overflow=hidden;rotatable=0;points=[[0,0.5],[1,0.5]];portConstraint=eastwest;whiteSpace=wrap;html=1;" vertex="1" parent="qWCiT4NCThMTdPQkKWIU-92">
          <mxGeometry y="26" width="140" height="26" as="geometry" />
        </mxCell>
        <mxCell id="qWCiT4NCThMTdPQkKWIU-94" value="quantity" style="text;strokeColor=none;fillColor=none;align=left;verticalAlign=top;spacingLeft=4;spacingRight=4;overflow=hidden;rotatable=0;points=[[0,0.5],[1,0.5]];portConstraint=eastwest;whiteSpace=wrap;html=1;" vertex="1" parent="qWCiT4NCThMTdPQkKWIU-92">
          <mxGeometry y="52" width="140" height="28" as="geometry" />
        </mxCell>
        <mxCell id="qWCiT4NCThMTdPQkKWIU-95" value="size" style="text;strokeColor=none;fillColor=none;align=left;verticalAlign=top;spacingLeft=4;spacingRight=4;overflow=hidden;rotatable=0;points=[[0,0.5],[1,0.5]];portConstraint=eastwest;whiteSpace=wrap;html=1;" vertex="1" parent="qWCiT4NCThMTdPQkKWIU-92">
          <mxGeometry y="80" width="140" height="28" as="geometry" />
        </mxCell>
        <mxCell id="qWCiT4NCThMTdPQkKWIU-96" value="contains" style="ellipse;whiteSpace=wrap;html=1;align=center;newEdgeStyle={&quot;edgeStyle&quot;:&quot;entityRelationEdgeStyle&quot;,&quot;startArrow&quot;:&quot;none&quot;,&quot;endArrow&quot;:&quot;none&quot;,&quot;segment&quot;:10,&quot;curved&quot;:1,&quot;sourcePerimeterSpacing&quot;:0,&quot;targetPerimeterSpacing&quot;:0};treeFolding=1;treeMoving=1;" vertex="1" parent="1">
          <mxGeometry x="699" y="410" width="100" height="40" as="geometry" />
        </mxCell>
        <mxCell id="qWCiT4NCThMTdPQkKWIU-97" value="" style="endArrow=none;html=1;entryX=0.5;entryY=1;entryDx=0;entryDy=0;exitX=0.5;exitY=0;exitDx=0;exitDy=0;" edge="1" parent="1" source="qWCiT4NCThMTdPQkKWIU-92" target="qWCiT4NCThMTdPQkKWIU-78">
          <mxGeometry width="50" height="50" relative="1" as="geometry">
            <mxPoint x="949" y="400" as="sourcePoint" />
            <mxPoint x="999" y="350" as="targetPoint" />
          </mxGeometry>
        </mxCell>
        <mxCell id="qWCiT4NCThMTdPQkKWIU-98" value="" style="endArrow=none;html=1;exitX=0.5;exitY=0;exitDx=0;exitDy=0;" edge="1" parent="1" source="qWCiT4NCThMTdPQkKWIU-96">
          <mxGeometry width="50" height="50" relative="1" as="geometry">
            <mxPoint x="949" y="400" as="sourcePoint" />
            <mxPoint x="749" y="360" as="targetPoint" />
          </mxGeometry>
        </mxCell>
        <mxCell id="qWCiT4NCThMTdPQkKWIU-99" value="" style="endArrow=none;html=1;entryX=0;entryY=0.5;entryDx=0;entryDy=0;" edge="1" parent="1" target="qWCiT4NCThMTdPQkKWIU-96">
          <mxGeometry width="50" height="50" relative="1" as="geometry">
            <mxPoint x="499" y="430" as="sourcePoint" />
            <mxPoint x="999" y="350" as="targetPoint" />
          </mxGeometry>
        </mxCell>
        <mxCell id="qWCiT4NCThMTdPQkKWIU-100" value="1,1" style="text;html=1;align=center;verticalAlign=middle;resizable=0;points=[];autosize=1;strokeColor=none;fillColor=none;" vertex="1" parent="1">
          <mxGeometry x="709" y="360" width="40" height="30" as="geometry" />
        </mxCell>
        <mxCell id="qWCiT4NCThMTdPQkKWIU-101" value="address" style="swimlane;fontStyle=0;childLayout=stackLayout;horizontal=1;startSize=26;fillColor=none;horizontalStack=0;resizeParent=1;resizeParentMax=0;resizeLast=0;collapsible=1;marginBottom=0;html=1;" vertex="1" parent="1">
          <mxGeometry x="9" y="40" width="140" height="142" as="geometry" />
        </mxCell>
        <mxCell id="qWCiT4NCThMTdPQkKWIU-102" value="&lt;u&gt;ref_address&lt;/u&gt;" style="text;strokeColor=none;fillColor=none;align=left;verticalAlign=top;spacingLeft=4;spacingRight=4;overflow=hidden;rotatable=0;points=[[0,0.5],[1,0.5]];portConstraint=eastwest;whiteSpace=wrap;html=1;" vertex="1" parent="qWCiT4NCThMTdPQkKWIU-101">
          <mxGeometry y="26" width="140" height="26" as="geometry" />
        </mxCell>
        <mxCell id="qWCiT4NCThMTdPQkKWIU-103" value="city" style="text;strokeColor=none;fillColor=none;align=left;verticalAlign=middle;spacingLeft=4;spacingRight=4;overflow=hidden;points=[[0,0.5],[1,0.5]];portConstraint=eastwest;rotatable=0;whiteSpace=wrap;html=1;" vertex="1" parent="qWCiT4NCThMTdPQkKWIU-101">
          <mxGeometry y="52" width="140" height="30" as="geometry" />
        </mxCell>
        <mxCell id="qWCiT4NCThMTdPQkKWIU-104" value="address" style="text;strokeColor=none;fillColor=none;align=left;verticalAlign=middle;spacingLeft=4;spacingRight=4;overflow=hidden;points=[[0,0.5],[1,0.5]];portConstraint=eastwest;rotatable=0;whiteSpace=wrap;html=1;" vertex="1" parent="qWCiT4NCThMTdPQkKWIU-101">
          <mxGeometry y="82" width="140" height="30" as="geometry" />
        </mxCell>
        <mxCell id="qWCiT4NCThMTdPQkKWIU-105" value="zip_code" style="text;strokeColor=none;fillColor=none;align=left;verticalAlign=middle;spacingLeft=4;spacingRight=4;overflow=hidden;points=[[0,0.5],[1,0.5]];portConstraint=eastwest;rotatable=0;whiteSpace=wrap;html=1;" vertex="1" parent="qWCiT4NCThMTdPQkKWIU-101">
          <mxGeometry y="112" width="140" height="30" as="geometry" />
        </mxCell>
        <mxCell id="qWCiT4NCThMTdPQkKWIU-106" value="have" style="ellipse;whiteSpace=wrap;html=1;align=center;newEdgeStyle={&quot;edgeStyle&quot;:&quot;entityRelationEdgeStyle&quot;,&quot;startArrow&quot;:&quot;none&quot;,&quot;endArrow&quot;:&quot;none&quot;,&quot;segment&quot;:10,&quot;curved&quot;:1,&quot;sourcePerimeterSpacing&quot;:0,&quot;targetPerimeterSpacing&quot;:0};treeFolding=1;treeMoving=1;" vertex="1" parent="1">
          <mxGeometry x="199" y="77" width="100" height="40" as="geometry" />
        </mxCell>
        <mxCell id="qWCiT4NCThMTdPQkKWIU-107" value="" style="endArrow=none;html=1;exitX=1;exitY=0.5;exitDx=0;exitDy=0;" edge="1" parent="1" source="qWCiT4NCThMTdPQkKWIU-106">
          <mxGeometry width="50" height="50" relative="1" as="geometry">
            <mxPoint x="269" y="200" as="sourcePoint" />
            <mxPoint x="359" y="97" as="targetPoint" />
          </mxGeometry>
        </mxCell>
        <mxCell id="qWCiT4NCThMTdPQkKWIU-108" value="" style="endArrow=none;html=1;entryX=0;entryY=0.5;entryDx=0;entryDy=0;" edge="1" parent="1" target="qWCiT4NCThMTdPQkKWIU-106">
          <mxGeometry width="50" height="50" relative="1" as="geometry">
            <mxPoint x="148" y="97" as="sourcePoint" />
            <mxPoint x="169" y="245" as="targetPoint" />
          </mxGeometry>
        </mxCell>
        <mxCell id="qWCiT4NCThMTdPQkKWIU-109" value="1,1" style="text;html=1;align=center;verticalAlign=middle;resizable=0;points=[];autosize=1;strokeColor=none;fillColor=none;" vertex="1" parent="1">
          <mxGeometry x="149" y="55" width="40" height="30" as="geometry" />
        </mxCell>
        <mxCell id="qWCiT4NCThMTdPQkKWIU-110" value="1,N" style="text;html=1;align=center;verticalAlign=middle;resizable=0;points=[];autosize=1;strokeColor=none;fillColor=none;" vertex="1" parent="1">
          <mxGeometry x="319" y="55" width="40" height="30" as="geometry" />
        </mxCell>
        <mxCell id="qWCiT4NCThMTdPQkKWIU-111" value="1,1" style="text;html=1;align=center;verticalAlign=middle;resizable=0;points=[];autosize=1;strokeColor=none;fillColor=none;" vertex="1" parent="1">
          <mxGeometry x="699" y="220" width="40" height="30" as="geometry" />
        </mxCell>
        <mxCell id="qWCiT4NCThMTdPQkKWIU-120" value="" style="endArrow=none;html=1;exitX=0.5;exitY=0;exitDx=0;exitDy=0;" edge="1" parent="1" source="qWCiT4NCThMTdPQkKWIU-80">
          <mxGeometry width="50" height="50" relative="1" as="geometry">
            <mxPoint x="429" y="284" as="sourcePoint" />
            <mxPoint x="429" y="250" as="targetPoint" />
          </mxGeometry>
        </mxCell>
      </root>
    </mxGraphModel>
  </diagram>
</mxfile>
